<svg width="24" height="24" viewBox="0 0 24 24" fill="none" xmlns="http://www.w3.org/2000/svg">
<path d="M2.35065 17.3908C2.12473 17.0075 2.00396 16.5734 2.0001 16.1306C1.99623 15.6879 2.10942 15.2518 2.32862 14.8647C2.54782 14.4777 2.86554 14.153 3.25079 13.9223C3.63605 13.6917 4.07567 13.5629 4.52679 13.5485L6.85092 8.53649C7.27501 7.61629 7.93415 6.81909 8.7645 6.22208C9.59486 5.62508 10.5683 5.2485 11.5906 5.12881C11.4665 4.69502 11.4632 4.23655 11.581 3.80109C11.6822 3.41875 11.8722 3.06455 12.1361 2.76618C12.4 2.46781 12.7307 2.23335 13.1023 2.08113C13.4739 1.92891 13.8763 1.86305 14.2782 1.88871C14.68 1.91437 15.0704 2.03084 15.4187 2.22903C15.7671 2.42721 16.064 2.70174 16.2862 3.03115C16.5085 3.36056 16.65 3.73593 16.6999 4.12791C16.7497 4.51989 16.7064 4.91786 16.5734 5.29072C16.4404 5.66357 16.2214 6.00121 15.9333 6.27723C16.7573 6.88107 17.4087 7.68314 17.8245 8.60597C18.2403 9.5288 18.4065 10.5412 18.307 11.5454L17.7647 17.0271C18.2973 17.351 18.6933 17.8519 18.8806 18.4385C19.0679 19.025 19.0339 19.6581 18.7849 20.2221C18.5359 20.7861 18.0884 21.2435 17.5242 21.5108C16.9599 21.778 16.3165 21.8374 15.7113 21.678L14.8992 21.4645C14.8784 21.8444 14.7714 22.215 14.5861 22.5492C14.4007 22.8833 14.1416 23.1727 13.8277 23.3961C13.5138 23.6196 13.153 23.7714 12.7716 23.8407C12.3902 23.9099 11.9979 23.8947 11.6232 23.7962C11.2486 23.6977 10.9011 23.5184 10.6061 23.2714C10.3111 23.0244 10.0761 22.7159 9.91815 22.3684C9.76021 22.021 9.68335 21.6433 9.69318 21.263C9.70301 20.8826 9.79929 20.5093 9.97499 20.1701L3.94098 18.5836C3.60865 18.4979 3.29698 18.3483 3.02399 18.1435C2.75101 17.9388 2.52215 17.6829 2.35065 17.3908ZM14.8574 4.03333C14.8001 3.9363 14.7238 3.8513 14.633 3.78318C14.5422 3.71505 14.4386 3.66514 14.3282 3.6363C14.2541 3.61667 14.1777 3.60662 14.101 3.60641C13.9095 3.60697 13.7235 3.66946 13.5719 3.7842C13.4202 3.89895 13.3114 4.05954 13.2623 4.2411C13.2131 4.42265 13.2264 4.61505 13.3 4.78846C13.3736 4.96188 13.5034 5.10665 13.6694 5.20033C13.8354 5.29401 14.0283 5.33139 14.2181 5.30666C14.408 5.28194 14.5842 5.19649 14.7195 5.06356C14.8548 4.93063 14.9417 4.75764 14.9666 4.57139C14.9915 4.38513 14.9531 4.19602 14.8574 4.03333ZM11.4304 21.3048C11.429 21.4312 11.4562 21.5562 11.51 21.671C11.5638 21.7858 11.643 21.8874 11.7417 21.9686C11.8404 22.0497 11.9563 22.1084 12.0809 22.1403C12.2055 22.1722 12.3358 22.1766 12.4624 22.1532C12.5889 22.1297 12.7086 22.079 12.8128 22.0047C12.9169 21.9304 13.003 21.8343 13.0647 21.7234C13.1265 21.6126 13.1624 21.4896 13.1698 21.3635C13.1772 21.2374 13.1561 21.1112 13.1078 20.994L11.7725 20.644C11.6677 20.7211 11.5824 20.8208 11.523 20.9354C11.4637 21.0499 11.432 21.1763 11.4304 21.3048Z" fill="#292D32"/>
</svg>
