<svg width="20" height="20" viewBox="0 0 20 20" fill="none" xmlns="http://www.w3.org/2000/svg">
<path d="M7 9.375C7 7.71815 8.34315 6.375 10 6.375C11.6569 6.375 13 7.71815 13 9.375C13 11.0319 11.6569 12.375 10 12.375C8.34315 12.375 7 11.0319 7 9.375Z" stroke="#60778C" stroke-width="1.5"/>
<mask id="path-2-inside-1_1523_742" fill="white">
<path fill-rule="evenodd" clip-rule="evenodd" d="M19.273 9.375C17.7895 13.0398 14.1966 15.625 9.99991 15.625C5.80319 15.625 2.21028 13.0398 0.726807 9.375C2.21028 5.71021 5.80319 3.125 9.99991 3.125C14.1966 3.125 17.7895 5.71021 19.273 9.375Z"/>
</mask>
<path d="M19.273 9.375L20.6634 9.93782L20.8912 9.375L20.6634 8.81218L19.273 9.375ZM0.726807 9.375L-0.6636 8.81218L-0.891425 9.375L-0.6636 9.93782L0.726807 9.375ZM17.8826 8.81218C16.6205 11.93 13.5648 14.125 9.99991 14.125V17.125C14.8285 17.125 18.9585 14.1496 20.6634 9.93782L17.8826 8.81218ZM9.99991 14.125C6.43506 14.125 3.37928 11.93 2.11721 8.81218L-0.6636 9.93782C1.04127 14.1496 5.17132 17.125 9.99991 17.125V14.125ZM2.11721 9.93782C3.37928 6.81999 6.43506 4.625 9.99991 4.625V1.625C5.17132 1.625 1.04127 4.60044 -0.6636 8.81218L2.11721 9.93782ZM9.99991 4.625C13.5648 4.625 16.6205 6.81999 17.8826 9.93782L20.6634 8.81218C18.9585 4.60044 14.8285 1.625 9.99991 1.625V4.625Z" fill="#60778C" mask="url(#path-2-inside-1_1523_742)"/>
</svg>
